<?xml version="1.0" encoding="utf-8"?>
<!-- Generator: Adobe Illustrator 22.0.0, SVG Export Plug-In . SVG Version: 6.00 Build 0)  -->
<svg version="1.1" id="Layer_1" xmlns="http://www.w3.org/2000/svg" xmlns:xlink="http://www.w3.org/1999/xlink" x="0px" y="0px"
	 viewBox="0 0 80 80" style="enable-background:new 0 0 80 80;" xml:space="preserve">
<g id="Layer_2_1_">
</g>
<g id="Layer_1_1_">
	<g>
		<g>
			<path d="M66.1,27.4l-4.8,4.8c1.9,3.8,2.9,8.1,2.9,12.6c0,16-13,29-29,29c-15.8,0-28.9-13-28.9-29s13-29,29-29
				c4.5,0,8.8,1,12.5,2.9l4.8-4.8l-2.2-1c-4.6-2.2-9.8-3.5-15.2-3.5C15.8,9.4,0,25.2,0,44.7S15.8,80,35.3,80s35.3-15.8,35.3-35.3
				c0-5.4-1.3-10.5-3.5-15.2L66.1,27.4z"/>
			<path d="M35.3,28.8c0.8,0,1.5,0.1,2.3,0.2l5.2-5.2c-2.4-0.9-4.8-1.3-7.5-1.3c-12.3,0.1-22.2,10-22.2,22.3S23,67.1,35.4,67.1
				c12.3,0,22.3-10,22.3-22.3c0-2.6-0.5-5.1-1.3-7.5l-5.2,5.2c0.2,0.8,0.2,1.5,0.2,2.3c0,8.8-7.2,15.9-15.9,15.9
				c-8.8,0-16-7.2-16-15.9C19.4,36,26.5,28.8,35.3,28.8z"/>
			<path d="M79.8,12c-0.3-0.9-1.3-1.4-2.2-1.4h-8.1V2.4c0-0.9-0.6-1.9-1.4-2.2c-0.9-0.3-1.9-0.2-2.6,0.5l-8,8
				c-0.4,0.4-0.7,1-0.7,1.7v8.3L39.2,36.3c-1.2-0.6-2.5-0.9-3.9-0.9c-5.1,0-9.3,4.1-9.3,9.3s4.1,9.3,9.3,9.3c5.1,0,9.3-4.1,9.3-9.3
				c0-1.4-0.3-2.7-0.9-3.9l17.7-17.6h8.3c0.6,0,1.3-0.3,1.7-0.7l8-8C80,13.8,80.2,12.8,79.8,12z"/>
		</g>
	</g>
</g>
</svg>
