<?xml version="1.0" encoding="utf-8"?>
<!-- Generator: Adobe Illustrator 22.0.0, SVG Export Plug-In . SVG Version: 6.00 Build 0)  -->
<svg version="1.1" id="Layer_1" xmlns="http://www.w3.org/2000/svg" xmlns:xlink="http://www.w3.org/1999/xlink" x="0px" y="0px"
	 viewBox="0 0 80 80" style="enable-background:new 0 0 80 80;" xml:space="preserve">
<style type="text/css">
	.st0{fill:#5BBA47;}
	.st1{fill:#F1F2F2;}
</style>
<path class="st0" d="M40,0C17.9,0,0,17.9,0,40s17.9,40,40,40c22.1,0,40-17.9,40-40S62.1,0,40,0z M46.8,53.3
	c-0.9,1.6-2.1,2.7-3.8,3.3v4.9h-2v-4.4c0,0-0.1,0-0.1,0c-0.6,0.1-0.9,0.1-1.2,0.1c-0.1,0-0.3,0-0.4,0c-0.2,0-0.3,0-0.4,0v4.4h-2
	v-4.7c-1.2-0.3-2.1-0.8-3-1.6c-0.8-0.8-1.5-1.8-2-3.1l3.9-2.1c0.3,1.1,0.8,1.8,1.3,2.3c0.5,0.5,1.3,0.7,2.2,0.7c1.3,0,2.3-0.4,3-1.3
	c0.7-0.8,1.1-2,1.1-3.6c0-1.3-0.3-2.4-0.8-3.3c-0.5-0.9-1.5-1.8-3-2.9c-0.6-0.4-1.5-1-2.8-1.8c-1.3-0.8-2.1-1.4-2.5-1.8
	c-0.8-0.9-1.4-1.8-1.8-2.8c-0.4-1-0.5-2.2-0.5-3.7c0-2.3,0.4-4.2,1.3-5.6c0.8-1.4,2.1-2.5,3.7-3v-4.9h2V23c0.2,0,0.4,0,0.6,0
	c0.2,0,0.5,0,1,0H41v-4.4h2v4.7c1,0.2,1.9,0.7,2.7,1.4c0.8,0.7,1.5,1.8,2.2,3.3L44,29.8c-0.2-1-0.6-1.7-1.2-2.2
	c-0.6-0.5-1.3-0.7-2.2-0.7c-1.3,0-2.3,0.4-3,1.1c-0.7,0.7-1,1.8-1,3.3c0,1.3,0.2,2.3,0.7,3.1c0.5,0.8,1.6,1.8,3.2,2.9
	c0.4,0.3,1,0.7,1.8,1.2c1.8,1.2,2.9,2,3.3,2.5c0.8,0.9,1.5,1.9,1.8,2.9c0.4,1,0.6,2.2,0.6,3.6C48.1,49.8,47.6,51.7,46.8,53.3z"/>
<path class="st1" d="M46.8,53.3c-0.9,1.6-2.1,2.7-3.8,3.3v4.9h-2v-4.4c0,0-0.1,0-0.1,0c-0.6,0.1-0.9,0.1-1.2,0.1c-0.1,0-0.3,0-0.4,0
	c-0.2,0-0.3,0-0.4,0v4.4h-2v-4.7c-1.2-0.3-2.1-0.8-3-1.6c-0.8-0.8-1.5-1.8-2-3.1l3.9-2.1c0.3,1.1,0.8,1.8,1.3,2.3
	c0.5,0.5,1.3,0.7,2.2,0.7c1.3,0,2.3-0.4,3-1.3c0.7-0.8,1.1-2,1.1-3.6c0-1.3-0.3-2.4-0.8-3.3c-0.5-0.9-1.5-1.8-3-2.9
	c-0.6-0.4-1.5-1-2.8-1.8c-1.3-0.8-2.1-1.4-2.5-1.8c-0.8-0.9-1.4-1.8-1.8-2.8c-0.4-1-0.5-2.2-0.5-3.7c0-2.3,0.4-4.2,1.3-5.6
	c0.8-1.4,2.1-2.5,3.7-3v-4.9h2V23c0.2,0,0.4,0,0.6,0c0.2,0,0.5,0,1,0H41v-4.4h2v4.7c1,0.2,1.9,0.7,2.7,1.4c0.8,0.7,1.5,1.8,2.2,3.3
	L44,29.8c-0.2-1-0.6-1.7-1.2-2.2c-0.6-0.5-1.3-0.7-2.2-0.7c-1.3,0-2.3,0.4-3,1.1c-0.7,0.7-1,1.8-1,3.3c0,1.3,0.2,2.3,0.7,3.1
	c0.5,0.8,1.6,1.8,3.2,2.9c0.4,0.3,1,0.7,1.8,1.2c1.8,1.2,2.9,2,3.3,2.5c0.8,0.9,1.5,1.9,1.8,2.9c0.4,1,0.6,2.2,0.6,3.6
	C48.1,49.8,47.6,51.7,46.8,53.3z"/>
</svg>
