<?xml version="1.0" encoding="utf-8"?>
<!-- Generator: Adobe Illustrator 22.0.0, SVG Export Plug-In . SVG Version: 6.00 Build 0)  -->
<svg version="1.1" id="Layer_1" xmlns="http://www.w3.org/2000/svg" xmlns:xlink="http://www.w3.org/1999/xlink" x="0px" y="0px"
	 viewBox="0 0 80 80" style="enable-background:new 0 0 80 80;" xml:space="preserve">
<style type="text/css">
	.st0{fill:#FFE62F;}
</style>
<title>Happy</title>
<path class="st0" d="M0,40c0,22.1,17.9,40,40,40s40-17.9,40-40c0,0,0-0.1,0-0.1C79.9,17.9,62.1,0.1,40.2,0c-0.1,0-0.1,0-0.2,0
	C17.9,0,0,17.9,0,40z M19.8,31.5c-1,0-1.7-0.8-1.7-1.8c0-0.2,0-0.3,0.1-0.5c1.2-4.5,5.9-7.2,10.4-5.9c2.9,0.8,5.2,3.1,5.9,5.9
	c0.3,0.9-0.3,1.9-1.2,2.2c-0.2,0-0.3,0.1-0.5,0.1c-0.8,0-1.5-0.5-1.7-1.3c-0.7-2.7-3.5-4.2-6.1-3.5c-1.7,0.5-3,1.8-3.5,3.5
	C21.2,31,20.5,31.5,19.8,31.5L19.8,31.5z M45.6,29.3c1.2-4.5,5.9-7.2,10.4-5.9c2.9,0.8,5.2,3.1,5.9,5.9c0.3,0.9-0.3,1.9-1.2,2.2
	c-0.2,0-0.3,0.1-0.5,0.1c-0.8,0-1.5-0.5-1.7-1.3c-0.7-2.7-3.5-4.2-6.1-3.5c-1.7,0.5-3,1.8-3.5,3.5c-0.2,0.8-0.9,1.3-1.7,1.3h0
	c-1,0-1.7-0.8-1.7-1.8C45.5,29.6,45.5,29.4,45.6,29.3z M56.6,46c0.7-0.5,1.7-0.4,2.3,0.3c0,0,0.1,0.1,0.1,0.1
	c0.6,0.8,0.4,1.9-0.4,2.4c-5.5,3.9-12,6-18.6,6c-6.7-0.1-13.2-2.2-18.6-6c0,0-0.1-0.1-0.1-0.1c-0.7-0.6-0.8-1.7-0.2-2.5
	c0.6-0.7,1.6-0.8,2.3-0.3c4.9,3.4,10.7,5.3,16.6,5.4C46,51.3,51.8,49.4,56.6,46z"/>
</svg>
