<?xml version="1.0" encoding="utf-8"?>
<!-- Generator: Adobe Illustrator 22.0.0, SVG Export Plug-In . SVG Version: 6.00 Build 0)  -->
<svg version="1.1" id="Layer_1" xmlns="http://www.w3.org/2000/svg" xmlns:xlink="http://www.w3.org/1999/xlink" x="0px" y="0px"
	 viewBox="0 0 56 80" style="enable-background:new 0 0 56 80;" xml:space="preserve">
<style type="text/css">
	.st0{fill:#80183E;}
</style>
<g>
	<path class="st0" d="M28,0C12.5,0,0,12.6,0,28.2c0,11.6,7,21.6,17.1,25.9v4.7h21.7v-4.7C48.9,49.9,56,39.8,56,28.2
		C56,12.6,43.5,0,28,0z"/>
	<path class="st0" d="M23.1,73.8v1.3c0,2.6,2.2,4.8,4.8,4.8s4.8-2.2,4.8-4.8v-1.3c2.6-0.4,4.8-2.4,5.6-4.8H17.5
		C18.4,71.5,20.4,73.3,23.1,73.8z"/>
	<rect x="17.1" y="61.8" class="st0" width="21.7" height="4.8"/>
</g>
</svg>
